<svg width="88" height="285" viewBox="0 0 88 285" fill="none" xmlns="http://www.w3.org/2000/svg">
<rect width="78" height="103" transform="matrix(1 0 0 -1 10 103)" fill="#B370F1"/>
<rect y="48" width="78" height="237" rx="15" fill="#545184" fill-opacity="0.85"/>
<rect x="10" y="40" width="78" height="232" rx="15" fill="white"/>
<rect x="13" y="211" width="70" height="57" rx="15" fill="url(#paint0_linear_137_8)"/>
<path d="M42.5135 26V12H49.3535C51.1135 12 52.4335 12.3333 53.3135 13C54.2068 13.6667 54.6535 14.5467 54.6535 15.64C54.6535 16.3733 54.4735 17.0133 54.1135 17.56C53.7535 18.0933 53.2602 18.5067 52.6335 18.8C52.0069 19.0933 51.2868 19.24 50.4735 19.24L50.8535 18.42C51.7335 18.42 52.5135 18.5667 53.1935 18.86C53.8735 19.14 54.4002 19.56 54.7735 20.12C55.1602 20.68 55.3535 21.3667 55.3535 22.18C55.3535 23.38 54.8802 24.32 53.9335 25C52.9868 25.6667 51.5935 26 49.7535 26H42.5135ZM45.7335 23.56H49.5135C50.3535 23.56 50.9868 23.4267 51.4135 23.16C51.8535 22.88 52.0735 22.44 52.0735 21.84C52.0735 21.2533 51.8535 20.82 51.4135 20.54C50.9868 20.2467 50.3535 20.1 49.5135 20.1H45.4935V17.74H48.9535C49.7402 17.74 50.3402 17.6067 50.7535 17.34C51.1802 17.06 51.3935 16.64 51.3935 16.08C51.3935 15.5333 51.1802 15.1267 50.7535 14.86C50.3402 14.58 49.7402 14.44 48.9535 14.44H45.7335V23.56Z" fill="white"/>
<defs>
<linearGradient id="paint0_linear_137_8" x1="48" y1="224" x2="48" y2="268" gradientUnits="userSpaceOnUse">
<stop stop-color="white"/>
<stop offset="1" stop-color="#EFDFEA"/>
</linearGradient>
</defs>
</svg>
