<svg width="88" height="285" viewBox="0 0 88 285" fill="none" xmlns="http://www.w3.org/2000/svg">
<rect width="78" height="103" transform="matrix(1 0 0 -1 10 103)" fill="#F17070"/>
<rect y="48" width="78" height="237" rx="15" fill="#545184" fill-opacity="0.85"/>
<rect x="10" y="40" width="78" height="232" rx="15" fill="white"/>
<rect x="13" y="211" width="70" height="57" rx="15" fill="url(#paint0_linear_137_2)"/>
<path d="M50.6237 27.24C49.5437 27.24 48.537 27.0667 47.6037 26.72C46.6837 26.36 45.8837 25.8533 45.2037 25.2C44.5237 24.5467 43.9903 23.78 43.6037 22.9C43.2303 22.02 43.0437 21.0533 43.0437 20C43.0437 18.9467 43.2303 17.98 43.6037 17.1C43.9903 16.22 44.5237 15.4533 45.2037 14.8C45.897 14.1467 46.7037 13.6467 47.6237 13.3C48.5437 12.94 49.5503 12.76 50.6437 12.76C51.857 12.76 52.9503 12.9733 53.9237 13.4C54.9103 13.8133 55.737 14.4267 56.4037 15.24L54.3237 17.16C53.8437 16.6133 53.3103 16.2067 52.7237 15.94C52.137 15.66 51.497 15.52 50.8037 15.52C50.1503 15.52 49.5503 15.6267 49.0037 15.84C48.457 16.0533 47.9837 16.36 47.5837 16.76C47.1837 17.16 46.8703 17.6333 46.6437 18.18C46.4303 18.7267 46.3237 19.3333 46.3237 20C46.3237 20.6667 46.4303 21.2733 46.6437 21.82C46.8703 22.3667 47.1837 22.84 47.5837 23.24C47.9837 23.64 48.457 23.9467 49.0037 24.16C49.5503 24.3733 50.1503 24.48 50.8037 24.48C51.497 24.48 52.137 24.3467 52.7237 24.08C53.3103 23.8 53.8437 23.38 54.3237 22.82L56.4037 24.74C55.737 25.5533 54.9103 26.1733 53.9237 26.6C52.9503 27.0267 51.8503 27.24 50.6237 27.24Z" fill="white"/>
<defs>
<linearGradient id="paint0_linear_137_2" x1="48" y1="224" x2="48" y2="268" gradientUnits="userSpaceOnUse">
<stop stop-color="white"/>
<stop offset="1" stop-color="#EFDFEA"/>
</linearGradient>
</defs>
</svg>
