<svg width="88" height="285" viewBox="0 0 88 285" fill="none" xmlns="http://www.w3.org/2000/svg">
<rect width="78" height="103" transform="matrix(1 0 0 -1 10 103)" fill="#F170DC"/>
<rect y="48" width="78" height="237" rx="15" fill="#545184" fill-opacity="0.85"/>
<rect x="10" y="40" width="78" height="232" rx="15" fill="white"/>
<rect x="13" y="211" width="70" height="57" rx="15" fill="url(#paint0_linear_137_9)"/>
<path d="M50.6237 26.24C49.5437 26.24 48.537 26.0667 47.6037 25.72C46.6837 25.36 45.8837 24.8533 45.2037 24.2C44.5237 23.5467 43.9903 22.78 43.6037 21.9C43.2303 21.02 43.0437 20.0533 43.0437 19C43.0437 17.9467 43.2303 16.98 43.6037 16.1C43.9903 15.22 44.5237 14.4533 45.2037 13.8C45.897 13.1467 46.7037 12.6467 47.6237 12.3C48.5437 11.94 49.5503 11.76 50.6437 11.76C51.857 11.76 52.9503 11.9733 53.9237 12.4C54.9103 12.8133 55.737 13.4267 56.4037 14.24L54.3237 16.16C53.8437 15.6133 53.3103 15.2067 52.7237 14.94C52.137 14.66 51.497 14.52 50.8037 14.52C50.1503 14.52 49.5503 14.6267 49.0037 14.84C48.457 15.0533 47.9837 15.36 47.5837 15.76C47.1837 16.16 46.8703 16.6333 46.6437 17.18C46.4303 17.7267 46.3237 18.3333 46.3237 19C46.3237 19.6667 46.4303 20.2733 46.6437 20.82C46.8703 21.3667 47.1837 21.84 47.5837 22.24C47.9837 22.64 48.457 22.9467 49.0037 23.16C49.5503 23.3733 50.1503 23.48 50.8037 23.48C51.497 23.48 52.137 23.3467 52.7237 23.08C53.3103 22.8 53.8437 22.38 54.3237 21.82L56.4037 23.74C55.737 24.5533 54.9103 25.1733 53.9237 25.6C52.9503 26.0267 51.8503 26.24 50.6237 26.24Z" fill="white"/>
<defs>
<linearGradient id="paint0_linear_137_9" x1="48" y1="224" x2="48" y2="268" gradientUnits="userSpaceOnUse">
<stop stop-color="white"/>
<stop offset="1" stop-color="#EFDFEA"/>
</linearGradient>
</defs>
</svg>
