<svg width="88" height="285" viewBox="0 0 88 285" fill="none" xmlns="http://www.w3.org/2000/svg">
<rect width="78" height="103" transform="matrix(1 0 0 -1 10 103)" fill="#70E8F1"/>
<rect y="48" width="78" height="237" rx="15" fill="#545184" fill-opacity="0.85"/>
<rect x="10" y="40" width="78" height="232" rx="15" fill="white"/>
<rect x="14" y="211" width="70" height="57" rx="15" fill="url(#paint0_linear_137_6)"/>
<path d="M50.2052 27.24C49.0985 27.24 48.0785 27.0667 47.1452 26.72C46.2252 26.36 45.4185 25.8533 44.7252 25.2C44.0452 24.5467 43.5118 23.78 43.1252 22.9C42.7518 22.02 42.5652 21.0533 42.5652 20C42.5652 18.9467 42.7518 17.98 43.1252 17.1C43.5118 16.22 44.0518 15.4533 44.7452 14.8C45.4385 14.1467 46.2518 13.6467 47.1852 13.3C48.1185 12.94 49.1452 12.76 50.2652 12.76C51.5052 12.76 52.6185 12.9667 53.6052 13.38C54.6052 13.7933 55.4452 14.3933 56.1252 15.18L54.0452 17.1C53.5385 16.5667 52.9852 16.1733 52.3852 15.92C51.7852 15.6533 51.1318 15.52 50.4252 15.52C49.7452 15.52 49.1252 15.6267 48.5652 15.84C48.0052 16.0533 47.5185 16.36 47.1052 16.76C46.7052 17.16 46.3918 17.6333 46.1652 18.18C45.9518 18.7267 45.8452 19.3333 45.8452 20C45.8452 20.6533 45.9518 21.2533 46.1652 21.8C46.3918 22.3467 46.7052 22.8267 47.1052 23.24C47.5185 23.64 47.9985 23.9467 48.5452 24.16C49.1052 24.3733 49.7185 24.48 50.3852 24.48C51.0252 24.48 51.6452 24.38 52.2452 24.18C52.8585 23.9667 53.4518 23.6133 54.0252 23.12L55.8652 25.46C55.1052 26.0333 54.2185 26.4733 53.2052 26.78C52.2052 27.0867 51.2052 27.24 50.2052 27.24ZM55.8652 25.46L52.9052 25.04V19.78H55.8652V25.46Z" fill="white"/>
<defs>
<linearGradient id="paint0_linear_137_6" x1="49" y1="224" x2="49" y2="268" gradientUnits="userSpaceOnUse">
<stop stop-color="white"/>
<stop offset="1" stop-color="#EFDFEA"/>
</linearGradient>
</defs>
</svg>
