<svg width="394" height="342" viewBox="0 0 394 342" fill="none" xmlns="http://www.w3.org/2000/svg">
<rect x="-13" width="407" height="342" fill="#545184" fill-opacity="0.85"/>
<rect opacity="0.5" x="137" y="48" width="78" height="237" rx="15" fill="#545184" fill-opacity="0.85"/>
<rect opacity="0.5" x="222" y="48" width="78" height="237" rx="15" fill="#545184" fill-opacity="0.85"/>
<rect opacity="0.5" x="306" y="48" width="78" height="237" rx="15" fill="#545184" fill-opacity="0.85"/>
<rect opacity="0.5" x="147" y="40" width="78" height="232" rx="15" fill="white"/>
<rect opacity="0.5" x="232" y="40" width="78" height="232" rx="15" fill="white"/>
<rect opacity="0.5" x="316" y="40" width="78" height="232" rx="15" fill="white"/>
<rect x="200" y="38" width="45" height="116" rx="15" fill="#545184" fill-opacity="0.6"/>
<rect x="285" y="38" width="45" height="116" rx="15" fill="#545184" fill-opacity="0.6"/>
<rect x="205" y="31" width="45" height="116" rx="15" fill="#545184"/>
<rect x="290" y="31" width="45" height="116" rx="15" fill="#545184"/>
<rect opacity="0.5" x="-32" y="48" width="78" height="237" rx="15" fill="#735184" fill-opacity="0.85"/>
<rect opacity="0.5" x="52" y="48" width="78" height="237" rx="15" fill="#545184" fill-opacity="0.85"/>
<rect opacity="0.5" x="-22" y="40" width="78" height="232" rx="15" fill="white"/>
<rect opacity="0.5" x="62" y="40" width="78" height="232" rx="15" fill="white"/>
<rect x="110" y="38" width="45" height="116" rx="15" fill="#545184" fill-opacity="0.6"/>
<rect x="115" y="31" width="45" height="116" rx="15" fill="#545184"/>
</svg>
