<svg width="441" height="342" viewBox="0 0 441 342" fill="none" xmlns="http://www.w3.org/2000/svg">
<rect width="502" height="342" fill="#545184" fill-opacity="0.85"/>
<rect x="6" y="38" width="17" height="116" rx="8.5" fill="#545184" fill-opacity="0.6"/>
<rect opacity="0.5" x="428" y="40" width="78" height="232" rx="15" fill="white"/>
<rect opacity="0.5" x="253" y="48" width="78" height="237" rx="15" fill="#545184" fill-opacity="0.85"/>
<rect opacity="0.5" x="81" y="48" width="78" height="237" rx="15" fill="#545184" fill-opacity="0.85"/>
<rect opacity="0.5" x="165" y="48" width="78" height="237" rx="15" fill="#545184" fill-opacity="0.85"/>
<rect opacity="0.5" x="6" y="40" width="78" height="232" rx="15" fill="white"/>
<rect opacity="0.5" x="91" y="40" width="78" height="232" rx="15" fill="white"/>
<rect opacity="0.5" x="175" y="40" width="78" height="232" rx="15" fill="white"/>
<rect x="63" y="38" width="45" height="116" rx="15" fill="#545184" fill-opacity="0.6"/>
<rect x="222" y="38" width="45" height="116" rx="15" fill="#545184" fill-opacity="0.6"/>
<rect opacity="0.5" x="334" y="48" width="78" height="237" rx="15" fill="#545184" fill-opacity="0.85"/>
<rect opacity="0.5" x="418" y="48" width="78" height="237" rx="15" fill="#545184" fill-opacity="0.85"/>
<rect opacity="0.5" x="259" y="40" width="78" height="232" rx="15" fill="white"/>
<rect opacity="0.5" x="344" y="40" width="78" height="232" rx="15" fill="white"/>
<rect x="312" y="38" width="45" height="116" rx="15" fill="#545184" fill-opacity="0.6"/>
<rect x="397" y="38" width="45" height="116" rx="15" fill="#545184" fill-opacity="0.6"/>
<rect x="317" y="31" width="45" height="116" rx="15" fill="#545184"/>
<rect x="402" y="31" width="45" height="116" rx="15" fill="#545184"/>
<rect y="31" width="28" height="116" rx="14" fill="#545184"/>
<rect y="31" width="13" height="116" fill="#545184"/>
<rect x="68" y="31" width="45" height="116" rx="15" fill="#545184"/>
<rect x="227" y="31" width="45" height="116" rx="15" fill="#545184"/>
</svg>
