<svg width="1512" height="982" viewBox="0 0 1512 982" fill="none" xmlns="http://www.w3.org/2000/svg">
<g clip-path="url(#clip0_76_3952)">
<rect width="1512" height="982" fill="white"/>
<path d="M68.04 99V61.34H78.47V71.63L76.51 68.62C77.8167 66.0533 79.66 64.1167 82.04 62.81C84.4667 61.4567 87.22 60.78 90.3 60.78C93.7533 60.78 96.7633 61.6667 99.33 63.44C101.943 65.1667 103.67 67.8267 104.51 71.42L100.66 70.37C101.92 67.43 103.927 65.0967 106.68 63.37C109.48 61.6433 112.677 60.78 116.27 60.78C119.257 60.78 121.893 61.3867 124.18 62.6C126.513 63.7667 128.333 65.5867 129.64 68.06C130.993 70.4867 131.67 73.6133 131.67 77.44V99H120.75V79.12C120.75 76.0867 120.12 73.8467 118.86 72.4C117.6 70.9533 115.827 70.23 113.54 70.23C111.953 70.23 110.53 70.6033 109.27 71.35C108.01 72.05 107.03 73.1233 106.33 74.57C105.63 76.0167 105.28 77.86 105.28 80.1V99H94.36V79.12C94.36 76.0867 93.73 73.8467 92.47 72.4C91.2567 70.9533 89.5067 70.23 87.22 70.23C85.6333 70.23 84.21 70.6033 82.95 71.35C81.69 72.05 80.71 73.1233 80.01 74.57C79.31 76.0167 78.96 77.86 78.96 80.1V99H68.04ZM164.558 99V91.65L163.858 90.04V76.88C163.858 74.5467 163.135 72.7267 161.688 71.42C160.288 70.1133 158.118 69.46 155.178 69.46C153.171 69.46 151.188 69.7867 149.228 70.44C147.315 71.0467 145.681 71.8867 144.328 72.96L140.408 65.33C142.461 63.8833 144.935 62.7633 147.828 61.97C150.721 61.1767 153.661 60.78 156.648 60.78C162.388 60.78 166.845 62.1333 170.018 64.84C173.191 67.5467 174.778 71.77 174.778 77.51V99H164.558ZM153.078 99.56C150.138 99.56 147.618 99.07 145.518 98.09C143.418 97.0633 141.808 95.6867 140.688 93.96C139.568 92.2333 139.008 90.2967 139.008 88.15C139.008 85.91 139.545 83.95 140.618 82.27C141.738 80.59 143.488 79.2833 145.868 78.35C148.248 77.37 151.351 76.88 155.178 76.88H165.188V83.25H156.368C153.801 83.25 152.028 83.67 151.048 84.51C150.115 85.35 149.648 86.4 149.648 87.66C149.648 89.06 150.185 90.18 151.258 91.02C152.378 91.8133 153.895 92.21 155.808 92.21C157.628 92.21 159.261 91.79 160.708 90.95C162.155 90.0633 163.205 88.78 163.858 87.1L165.538 92.14C164.745 94.5667 163.298 96.41 161.198 97.67C159.098 98.93 156.391 99.56 153.078 99.56ZM197.331 99.56C194.111 99.56 191.008 99.1867 188.021 98.44C185.081 97.6467 182.748 96.6667 181.021 95.5L184.661 87.66C186.388 88.7333 188.418 89.62 190.751 90.32C193.131 90.9733 195.464 91.3 197.751 91.3C200.271 91.3 202.044 90.9967 203.071 90.39C204.144 89.7833 204.681 88.9433 204.681 87.87C204.681 86.9833 204.261 86.33 203.421 85.91C202.628 85.4433 201.554 85.0933 200.201 84.86C198.848 84.6267 197.354 84.3933 195.721 84.16C194.134 83.9267 192.524 83.6233 190.891 83.25C189.258 82.83 187.764 82.2233 186.411 81.43C185.058 80.6367 183.961 79.5633 183.121 78.21C182.328 76.8567 181.931 75.1067 181.931 72.96C181.931 70.58 182.608 68.48 183.961 66.66C185.361 64.84 187.368 63.4167 189.981 62.39C192.594 61.3167 195.721 60.78 199.361 60.78C201.928 60.78 204.541 61.06 207.201 61.62C209.861 62.18 212.078 62.9967 213.851 64.07L210.211 71.84C208.391 70.7667 206.548 70.0433 204.681 69.67C202.861 69.25 201.088 69.04 199.361 69.04C196.934 69.04 195.161 69.3667 194.041 70.02C192.921 70.6733 192.361 71.5133 192.361 72.54C192.361 73.4733 192.758 74.1733 193.551 74.64C194.391 75.1067 195.488 75.48 196.841 75.76C198.194 76.04 199.664 76.2967 201.251 76.53C202.884 76.7167 204.518 77.02 206.151 77.44C207.784 77.86 209.254 78.4667 210.561 79.26C211.914 80.0067 213.011 81.0567 213.851 82.41C214.691 83.7167 215.111 85.4433 215.111 87.59C215.111 89.9233 214.411 92 213.011 93.82C211.611 95.5933 209.581 96.9933 206.921 98.02C204.308 99.0467 201.111 99.56 197.331 99.56ZM237.249 99.56C232.815 99.56 229.362 98.44 226.889 96.2C224.415 93.9133 223.179 90.53 223.179 86.05V53.01H234.099V85.91C234.099 87.4967 234.519 88.7333 235.359 89.62C236.199 90.46 237.342 90.88 238.789 90.88C240.515 90.88 241.985 90.4133 243.199 89.48L246.139 97.18C245.019 97.9733 243.665 98.58 242.079 99C240.539 99.3733 238.929 99.56 237.249 99.56ZM217.369 69.74V61.34H243.479V69.74H217.369ZM269.796 99.56C265.503 99.56 261.723 98.72 258.456 97.04C255.236 95.36 252.74 93.0733 250.966 90.18C249.193 87.24 248.306 83.9033 248.306 80.17C248.306 76.39 249.17 73.0533 250.896 70.16C252.67 67.22 255.073 64.9333 258.106 63.3C261.14 61.62 264.57 60.78 268.396 60.78C272.083 60.78 275.396 61.5733 278.336 63.16C281.323 64.7 283.68 66.94 285.406 69.88C287.133 72.7733 287.996 76.25 287.996 80.31C287.996 80.73 287.973 81.22 287.926 81.78C287.88 82.2933 287.833 82.7833 287.786 83.25H257.196V76.88H282.046L277.846 78.77C277.846 76.81 277.45 75.1067 276.656 73.66C275.863 72.2133 274.766 71.0933 273.366 70.3C271.966 69.46 270.333 69.04 268.466 69.04C266.6 69.04 264.943 69.46 263.496 70.3C262.096 71.0933 261 72.2367 260.206 73.73C259.413 75.1767 259.016 76.9033 259.016 78.91V80.59C259.016 82.6433 259.46 84.4633 260.346 86.05C261.28 87.59 262.563 88.78 264.196 89.62C265.876 90.4133 267.836 90.81 270.076 90.81C272.083 90.81 273.833 90.5067 275.326 89.9C276.866 89.2933 278.266 88.3833 279.526 87.17L285.336 93.47C283.61 95.43 281.44 96.9467 278.826 98.02C276.213 99.0467 273.203 99.56 269.796 99.56ZM295.267 99V61.34H305.697V71.98L304.227 68.9C305.347 66.24 307.143 64.2333 309.617 62.88C312.09 61.48 315.1 60.78 318.647 60.78V70.86C318.18 70.8133 317.76 70.79 317.387 70.79C317.013 70.7433 316.617 70.72 316.197 70.72C313.21 70.72 310.783 71.5833 308.917 73.31C307.097 74.99 306.187 77.6267 306.187 81.22V99H295.267ZM325.208 99V61.34H335.638V71.63L333.678 68.62C334.985 66.0533 336.828 64.1167 339.208 62.81C341.635 61.4567 344.388 60.78 347.468 60.78C350.921 60.78 353.931 61.6667 356.498 63.44C359.111 65.1667 360.838 67.8267 361.678 71.42L357.828 70.37C359.088 67.43 361.095 65.0967 363.848 63.37C366.648 61.6433 369.845 60.78 373.438 60.78C376.425 60.78 379.061 61.3867 381.348 62.6C383.681 63.7667 385.501 65.5867 386.808 68.06C388.161 70.4867 388.838 73.6133 388.838 77.44V99H377.918V79.12C377.918 76.0867 377.288 73.8467 376.028 72.4C374.768 70.9533 372.995 70.23 370.708 70.23C369.121 70.23 367.698 70.6033 366.438 71.35C365.178 72.05 364.198 73.1233 363.498 74.57C362.798 76.0167 362.448 77.86 362.448 80.1V99H351.528V79.12C351.528 76.0867 350.898 73.8467 349.638 72.4C348.425 70.9533 346.675 70.23 344.388 70.23C342.801 70.23 341.378 70.6033 340.118 71.35C338.858 72.05 337.878 73.1233 337.178 74.57C336.478 76.0167 336.128 77.86 336.128 80.1V99H325.208ZM398.626 99V61.34H409.546V99H398.626ZM404.086 56.09C402.079 56.09 400.446 55.5067 399.186 54.34C397.926 53.1733 397.296 51.7267 397.296 50C397.296 48.2733 397.926 46.8267 399.186 45.66C400.446 44.4933 402.079 43.91 404.086 43.91C406.093 43.91 407.726 44.47 408.986 45.59C410.246 46.6633 410.876 48.0633 410.876 49.79C410.876 51.61 410.246 53.1267 408.986 54.34C407.773 55.5067 406.139 56.09 404.086 56.09ZM419.681 99V61.34H430.111V71.77L428.151 68.62C429.504 66.1 431.441 64.1633 433.961 62.81C436.481 61.4567 439.351 60.78 442.571 60.78C445.557 60.78 448.217 61.3867 450.551 62.6C452.931 63.7667 454.797 65.5867 456.151 68.06C457.504 70.4867 458.181 73.6133 458.181 77.44V99H447.261V79.12C447.261 76.0867 446.584 73.8467 445.231 72.4C443.924 70.9533 442.057 70.23 439.631 70.23C437.904 70.23 436.341 70.6033 434.941 71.35C433.587 72.05 432.514 73.1467 431.721 74.64C430.974 76.1333 430.601 78.0467 430.601 80.38V99H419.681ZM484.523 99.56C480.976 99.56 477.779 98.7667 474.933 97.18C472.086 95.5467 469.823 93.2833 468.143 90.39C466.509 87.4967 465.693 84.09 465.693 80.17C465.693 76.2033 466.509 72.7733 468.143 69.88C469.823 66.9867 472.086 64.7467 474.933 63.16C477.779 61.5733 480.976 60.78 484.523 60.78C487.696 60.78 490.473 61.48 492.853 62.88C495.233 64.28 497.076 66.4033 498.383 69.25C499.689 72.0967 500.343 75.7367 500.343 80.17C500.343 84.5567 499.713 88.1967 498.453 91.09C497.193 93.9367 495.373 96.06 492.993 97.46C490.659 98.86 487.836 99.56 484.523 99.56ZM486.413 90.6C488.186 90.6 489.796 90.18 491.243 89.34C492.689 88.5 493.833 87.31 494.673 85.77C495.559 84.1833 496.003 82.3167 496.003 80.17C496.003 77.9767 495.559 76.11 494.673 74.57C493.833 73.03 492.689 71.84 491.243 71C489.796 70.16 488.186 69.74 486.413 69.74C484.593 69.74 482.959 70.16 481.513 71C480.066 71.84 478.899 73.03 478.013 74.57C477.173 76.11 476.753 77.9767 476.753 80.17C476.753 82.3167 477.173 84.1833 478.013 85.77C478.899 87.31 480.066 88.5 481.513 89.34C482.959 90.18 484.593 90.6 486.413 90.6ZM496.283 99V91.3L496.493 80.1L495.793 68.97V47.06H506.713V99H496.283ZM520.949 99.56C519.083 99.56 517.473 98.93 516.119 97.67C514.813 96.3633 514.159 94.7067 514.159 92.7C514.159 90.6933 514.813 89.0833 516.119 87.87C517.473 86.61 519.083 85.98 520.949 85.98C522.863 85.98 524.473 86.61 525.779 87.87C527.086 89.0833 527.739 90.6933 527.739 92.7C527.739 94.7067 527.086 96.3633 525.779 97.67C524.473 98.93 522.863 99.56 520.949 99.56Z" fill="white"/>
<path d="M78.4 135.1C77.48 135.1 76.6533 134.893 75.92 134.48C75.1867 134.053 74.6067 133.44 74.18 132.64C73.7533 131.84 73.54 130.873 73.54 129.74C73.54 128.593 73.7533 127.627 74.18 126.84C74.62 126.04 75.2067 125.433 75.94 125.02C76.6733 124.607 77.4933 124.4 78.4 124.4C79.4 124.4 80.2933 124.627 81.08 125.08C81.88 125.52 82.5067 126.14 82.96 126.94C83.4133 127.74 83.64 128.673 83.64 129.74C83.64 130.793 83.4133 131.727 82.96 132.54C82.5067 133.34 81.88 133.967 81.08 134.42C80.2933 134.873 79.4 135.1 78.4 135.1ZM72.98 135V120.16H74.4V127.6L74.2 129.72L74.34 131.84V135H72.98ZM78.3 133.84C79.0467 133.84 79.7133 133.673 80.3 133.34C80.8867 132.993 81.3533 132.513 81.7 131.9C82.0467 131.273 82.22 130.553 82.22 129.74C82.22 128.913 82.0467 128.193 81.7 127.58C81.3533 126.967 80.8867 126.493 80.3 126.16C79.7133 125.813 79.0467 125.64 78.3 125.64C77.5533 125.64 76.88 125.813 76.28 126.16C75.6933 126.493 75.2267 126.967 74.88 127.58C74.5467 128.193 74.38 128.913 74.38 129.74C74.38 130.553 74.5467 131.273 74.88 131.9C75.2267 132.513 75.6933 132.993 76.28 133.34C76.88 133.673 77.5533 133.84 78.3 133.84ZM86.3217 138.98C85.8284 138.98 85.3551 138.9 84.9017 138.74C84.4617 138.58 84.0817 138.34 83.7617 138.02L84.4217 136.96C84.6884 137.213 84.9751 137.407 85.2817 137.54C85.6017 137.687 85.9551 137.76 86.3417 137.76C86.8084 137.76 87.2084 137.627 87.5417 137.36C87.8884 137.107 88.2151 136.653 88.5217 136L89.2017 134.46L89.3617 134.24L93.6817 124.5H95.0817L89.8217 136.26C89.5284 136.94 89.2017 137.48 88.8417 137.88C88.4951 138.28 88.1151 138.56 87.7017 138.72C87.2884 138.893 86.8284 138.98 86.3217 138.98ZM89.1217 135.3L84.2817 124.5H85.7617L90.0417 134.14L89.1217 135.3ZM102.396 138.98C101.903 138.98 101.429 138.9 100.976 138.74C100.536 138.58 100.156 138.34 99.8359 138.02L100.496 136.96C100.763 137.213 101.049 137.407 101.356 137.54C101.676 137.687 102.029 137.76 102.416 137.76C102.883 137.76 103.283 137.627 103.616 137.36C103.963 137.107 104.289 136.653 104.596 136L105.276 134.46L105.436 134.24L109.756 124.5H111.156L105.896 136.26C105.603 136.94 105.276 137.48 104.916 137.88C104.569 138.28 104.189 138.56 103.776 138.72C103.363 138.893 102.903 138.98 102.396 138.98ZM105.196 135.3L100.356 124.5H101.836L106.116 134.14L105.196 135.3ZM119.345 135V132.68L119.285 132.3V128.42C119.285 127.527 119.032 126.84 118.525 126.36C118.032 125.88 117.292 125.64 116.305 125.64C115.625 125.64 114.978 125.753 114.365 125.98C113.752 126.207 113.232 126.507 112.805 126.88L112.165 125.82C112.698 125.367 113.338 125.02 114.085 124.78C114.832 124.527 115.618 124.4 116.445 124.4C117.805 124.4 118.852 124.74 119.585 125.42C120.332 126.087 120.705 127.107 120.705 128.48V135H119.345ZM115.725 135.1C114.938 135.1 114.252 134.973 113.665 134.72C113.092 134.453 112.652 134.093 112.345 133.64C112.038 133.173 111.885 132.64 111.885 132.04C111.885 131.493 112.012 131 112.265 130.56C112.532 130.107 112.958 129.747 113.545 129.48C114.145 129.2 114.945 129.06 115.945 129.06H119.565V130.12H115.985C114.972 130.12 114.265 130.3 113.865 130.66C113.478 131.02 113.285 131.467 113.285 132C113.285 132.6 113.518 133.08 113.985 133.44C114.452 133.8 115.105 133.98 115.945 133.98C116.745 133.98 117.432 133.8 118.005 133.44C118.592 133.067 119.018 132.533 119.285 131.84L119.605 132.82C119.338 133.513 118.872 134.067 118.205 134.48C117.552 134.893 116.725 135.1 115.725 135.1ZM128.902 135.1C128.009 135.1 127.229 134.933 126.562 134.6C125.895 134.267 125.375 133.767 125.002 133.1C124.642 132.433 124.462 131.6 124.462 130.6V124.5H125.882V130.44C125.882 131.56 126.155 132.407 126.702 132.98C127.262 133.54 128.042 133.82 129.042 133.82C129.775 133.82 130.409 133.673 130.942 133.38C131.489 133.073 131.902 132.633 132.182 132.06C132.475 131.487 132.622 130.8 132.622 130V124.5H134.042V135H132.682V132.12L132.902 132.64C132.569 133.413 132.049 134.02 131.342 134.46C130.649 134.887 129.835 135.1 128.902 135.1ZM143.314 138.98C142.821 138.98 142.347 138.9 141.894 138.74C141.454 138.58 141.074 138.34 140.754 138.02L141.414 136.96C141.681 137.213 141.967 137.407 142.274 137.54C142.594 137.687 142.947 137.76 143.334 137.76C143.801 137.76 144.201 137.627 144.534 137.36C144.881 137.107 145.207 136.653 145.514 136L146.194 134.46L146.354 134.24L150.674 124.5H152.074L146.814 136.26C146.521 136.94 146.194 137.48 145.834 137.88C145.487 138.28 145.107 138.56 144.694 138.72C144.281 138.893 143.821 138.98 143.314 138.98ZM146.114 135.3L141.274 124.5H142.754L147.034 134.14L146.114 135.3ZM160.263 135V132.68L160.203 132.3V128.42C160.203 127.527 159.95 126.84 159.443 126.36C158.95 125.88 158.21 125.64 157.223 125.64C156.543 125.64 155.896 125.753 155.283 125.98C154.67 126.207 154.15 126.507 153.723 126.88L153.083 125.82C153.616 125.367 154.256 125.02 155.003 124.78C155.75 124.527 156.536 124.4 157.363 124.4C158.723 124.4 159.77 124.74 160.503 125.42C161.25 126.087 161.623 127.107 161.623 128.48V135H160.263ZM156.643 135.1C155.856 135.1 155.17 134.973 154.583 134.72C154.01 134.453 153.57 134.093 153.263 133.64C152.956 133.173 152.803 132.64 152.803 132.04C152.803 131.493 152.93 131 153.183 130.56C153.45 130.107 153.876 129.747 154.463 129.48C155.063 129.2 155.863 129.06 156.863 129.06H160.483V130.12H156.903C155.89 130.12 155.183 130.3 154.783 130.66C154.396 131.02 154.203 131.467 154.203 132C154.203 132.6 154.436 133.08 154.903 133.44C155.37 133.8 156.023 133.98 156.863 133.98C157.663 133.98 158.35 133.8 158.923 133.44C159.51 133.067 159.936 132.533 160.203 131.84L160.523 132.82C160.256 133.513 159.79 134.067 159.123 134.48C158.47 134.893 157.643 135.1 156.643 135.1ZM169.82 135.1C168.927 135.1 168.147 134.933 167.48 134.6C166.813 134.267 166.293 133.767 165.92 133.1C165.56 132.433 165.38 131.6 165.38 130.6V124.5H166.8V130.44C166.8 131.56 167.073 132.407 167.62 132.98C168.18 133.54 168.96 133.82 169.96 133.82C170.693 133.82 171.327 133.673 171.86 133.38C172.407 133.073 172.82 132.633 173.1 132.06C173.393 131.487 173.54 130.8 173.54 130V124.5H174.96V135H173.6V132.12L173.82 132.64C173.487 133.413 172.967 134.02 172.26 134.46C171.567 134.887 170.753 135.1 169.82 135.1Z" fill="white"/>
<rect x="1149" y="-41" width="171" height="94" rx="15" fill="#545184" fill-opacity="0.56"/>
<rect x="1140" y="-49" width="171" height="94" rx="15" fill="#F0F0FA"/>
<path d="M1164.86 28V13.16H1167.98V20.22L1167.28 19.32C1167.66 18.6 1168.22 18.0467 1168.94 17.66C1169.66 17.2733 1170.48 17.08 1171.4 17.08C1172.25 17.08 1173.01 17.2533 1173.68 17.6C1174.36 17.9333 1174.89 18.4533 1175.28 19.16C1175.66 19.8533 1175.86 20.7467 1175.86 21.84V28H1172.74V22.32C1172.74 21.4533 1172.54 20.8133 1172.16 20.4C1171.78 19.9867 1171.25 19.78 1170.56 19.78C1170.06 19.78 1169.62 19.8867 1169.22 20.1C1168.83 20.3 1168.52 20.6133 1168.3 21.04C1168.08 21.4667 1167.98 22.0133 1167.98 22.68V28H1164.86ZM1183.88 28.16C1182.74 28.16 1181.72 27.92 1180.82 27.44C1179.94 26.96 1179.24 26.3067 1178.72 25.48C1178.22 24.64 1177.96 23.6867 1177.96 22.62C1177.96 21.54 1178.22 20.5867 1178.72 19.76C1179.24 18.92 1179.94 18.2667 1180.82 17.8C1181.72 17.32 1182.74 17.08 1183.88 17.08C1185.02 17.08 1186.03 17.32 1186.92 17.8C1187.82 18.2667 1188.52 18.9133 1189.02 19.74C1189.53 20.5667 1189.78 21.5267 1189.78 22.62C1189.78 23.6867 1189.53 24.64 1189.02 25.48C1188.52 26.3067 1187.82 26.96 1186.92 27.44C1186.03 27.92 1185.02 28.16 1183.88 28.16ZM1183.88 25.6C1184.4 25.6 1184.87 25.48 1185.28 25.24C1185.7 25 1186.02 24.66 1186.26 24.22C1186.5 23.7667 1186.62 23.2333 1186.62 22.62C1186.62 21.9933 1186.5 21.46 1186.26 21.02C1186.02 20.58 1185.7 20.24 1185.28 20C1184.87 19.76 1184.4 19.64 1183.88 19.64C1183.36 19.64 1182.9 19.76 1182.48 20C1182.07 20.24 1181.74 20.58 1181.48 21.02C1181.24 21.46 1181.12 21.9933 1181.12 22.62C1181.12 23.2333 1181.24 23.7667 1181.48 24.22C1181.74 24.66 1182.07 25 1182.48 25.24C1182.9 25.48 1183.36 25.6 1183.88 25.6ZM1194.03 28L1190.15 17.24H1193.09L1196.31 26.5H1194.91L1198.27 17.24H1200.91L1204.17 26.5H1202.77L1206.09 17.24H1208.85L1204.95 28H1201.93L1199.07 20.06H1199.99L1197.03 28H1194.03ZM1220.37 28.16C1219.1 28.16 1218.12 27.84 1217.41 27.2C1216.7 26.5467 1216.35 25.58 1216.35 24.3V14.86H1219.47V24.26C1219.47 24.7133 1219.59 25.0667 1219.83 25.32C1220.07 25.56 1220.4 25.68 1220.81 25.68C1221.3 25.68 1221.72 25.5467 1222.07 25.28L1222.91 27.48C1222.59 27.7067 1222.2 27.88 1221.75 28C1221.31 28.1067 1220.85 28.16 1220.37 28.16ZM1214.69 19.64V17.24H1222.15V19.64H1214.69ZM1229.45 28.16C1228.3 28.16 1227.28 27.92 1226.39 27.44C1225.51 26.96 1224.81 26.3067 1224.29 25.48C1223.78 24.64 1223.53 23.6867 1223.53 22.62C1223.53 21.54 1223.78 20.5867 1224.29 19.76C1224.81 18.92 1225.51 18.2667 1226.39 17.8C1227.28 17.32 1228.3 17.08 1229.45 17.08C1230.58 17.08 1231.6 17.32 1232.49 17.8C1233.38 18.2667 1234.08 18.9133 1234.59 19.74C1235.1 20.5667 1235.35 21.5267 1235.35 22.62C1235.35 23.6867 1235.1 24.64 1234.59 25.48C1234.08 26.3067 1233.38 26.96 1232.49 27.44C1231.6 27.92 1230.58 28.16 1229.45 28.16ZM1229.45 25.6C1229.97 25.6 1230.44 25.48 1230.85 25.24C1231.26 25 1231.59 24.66 1231.83 24.22C1232.07 23.7667 1232.19 23.2333 1232.19 22.62C1232.19 21.9933 1232.07 21.46 1231.83 21.02C1231.59 20.58 1231.26 20.24 1230.85 20C1230.44 19.76 1229.97 19.64 1229.45 19.64C1228.93 19.64 1228.46 19.76 1228.05 20C1227.64 20.24 1227.3 20.58 1227.05 21.02C1226.81 21.46 1226.69 21.9933 1226.69 22.62C1226.69 23.2333 1226.81 23.7667 1227.05 24.22C1227.3 24.66 1227.64 25 1228.05 25.24C1228.46 25.48 1228.93 25.6 1229.45 25.6ZM1249.46 28.16C1248.55 28.16 1247.76 27.96 1247.08 27.56C1246.4 27.16 1245.86 26.5533 1245.48 25.74C1245.1 24.9133 1244.92 23.8733 1244.92 22.62C1244.92 21.3533 1245.1 20.3133 1245.46 19.5C1245.82 18.6867 1246.34 18.08 1247.02 17.68C1247.7 17.28 1248.51 17.08 1249.46 17.08C1250.47 17.08 1251.38 17.3133 1252.18 17.78C1252.99 18.2333 1253.63 18.8733 1254.1 19.7C1254.58 20.5267 1254.82 21.5 1254.82 22.62C1254.82 23.7533 1254.58 24.7333 1254.1 25.56C1253.63 26.3867 1252.99 27.0267 1252.18 27.48C1251.38 27.9333 1250.47 28.16 1249.46 28.16ZM1243.1 31.88V17.24H1246.08V19.44L1246.02 22.64L1246.22 25.82V31.88H1243.1ZM1248.92 25.6C1249.44 25.6 1249.9 25.48 1250.3 25.24C1250.71 25 1251.04 24.66 1251.28 24.22C1251.53 23.7667 1251.66 23.2333 1251.66 22.62C1251.66 21.9933 1251.53 21.46 1251.28 21.02C1251.04 20.58 1250.71 20.24 1250.3 20C1249.9 19.76 1249.44 19.64 1248.92 19.64C1248.4 19.64 1247.93 19.76 1247.52 20C1247.1 20.24 1246.78 20.58 1246.54 21.02C1246.3 21.46 1246.18 21.9933 1246.18 22.62C1246.18 23.2333 1246.3 23.7667 1246.54 24.22C1246.78 24.66 1247.1 25 1247.52 25.24C1247.93 25.48 1248.4 25.6 1248.92 25.6ZM1256.91 28V13.16H1260.03V28H1256.91ZM1269.52 28V25.9L1269.32 25.44V21.68C1269.32 21.0133 1269.12 20.4933 1268.7 20.12C1268.3 19.7467 1267.68 19.56 1266.84 19.56C1266.27 19.56 1265.7 19.6533 1265.14 19.84C1264.6 20.0133 1264.13 20.2533 1263.74 20.56L1262.62 18.38C1263.21 17.9667 1263.92 17.6467 1264.74 17.42C1265.57 17.1933 1266.41 17.08 1267.26 17.08C1268.9 17.08 1270.18 17.4667 1271.08 18.24C1271.99 19.0133 1272.44 20.22 1272.44 21.86V28H1269.52ZM1266.24 28.16C1265.4 28.16 1264.68 28.02 1264.08 27.74C1263.48 27.4467 1263.02 27.0533 1262.7 26.56C1262.38 26.0667 1262.22 25.5133 1262.22 24.9C1262.22 24.26 1262.38 23.7 1262.68 23.22C1263 22.74 1263.5 22.3667 1264.18 22.1C1264.86 21.82 1265.75 21.68 1266.84 21.68H1269.7V23.5H1267.18C1266.45 23.5 1265.94 23.62 1265.66 23.86C1265.4 24.1 1265.26 24.4 1265.26 24.76C1265.26 25.16 1265.42 25.48 1265.72 25.72C1266.04 25.9467 1266.48 26.06 1267.02 26.06C1267.54 26.06 1268.01 25.94 1268.42 25.7C1268.84 25.4467 1269.14 25.08 1269.32 24.6L1269.8 26.04C1269.58 26.7333 1269.16 27.26 1268.56 27.62C1267.96 27.98 1267.19 28.16 1266.24 28.16ZM1276.43 32.04C1275.87 32.04 1275.32 31.9533 1274.77 31.78C1274.22 31.6067 1273.78 31.3667 1273.43 31.06L1274.57 28.84C1274.81 29.0533 1275.08 29.22 1275.39 29.34C1275.71 29.46 1276.02 29.52 1276.33 29.52C1276.77 29.52 1277.12 29.4133 1277.37 29.2C1277.64 29 1277.88 28.66 1278.09 28.18L1278.65 26.86L1278.89 26.52L1282.75 17.24H1285.75L1280.89 28.66C1280.54 29.5267 1280.14 30.2067 1279.69 30.7C1279.25 31.1933 1278.76 31.54 1278.21 31.74C1277.68 31.94 1277.08 32.04 1276.43 32.04ZM1278.27 28.42L1273.47 17.24H1276.69L1280.41 26.24L1278.27 28.42Z" fill="#545184"/>
<rect x="1342" y="-41" width="171" height="94" rx="15" fill="#545184" fill-opacity="0.56"/>
<rect x="1333" y="-49" width="171" height="94" rx="15" fill="#F0F0FA"/>
<path d="M1389.26 28V13.16H1392.38V28H1389.26ZM1400.62 28.16C1399.39 28.16 1398.31 27.92 1397.38 27.44C1396.46 26.96 1395.74 26.3067 1395.24 25.48C1394.73 24.64 1394.48 23.6867 1394.48 22.62C1394.48 21.54 1394.72 20.5867 1395.22 19.76C1395.72 18.92 1396.41 18.2667 1397.28 17.8C1398.14 17.32 1399.12 17.08 1400.22 17.08C1401.27 17.08 1402.22 17.3067 1403.06 17.76C1403.91 18.2 1404.58 18.84 1405.08 19.68C1405.57 20.5067 1405.82 21.5 1405.82 22.66C1405.82 22.78 1405.81 22.92 1405.8 23.08C1405.78 23.2267 1405.77 23.3667 1405.76 23.5H1397.02V21.68H1404.12L1402.92 22.22C1402.92 21.66 1402.8 21.1733 1402.58 20.76C1402.35 20.3467 1402.04 20.0267 1401.64 19.8C1401.24 19.56 1400.77 19.44 1400.24 19.44C1399.7 19.44 1399.23 19.56 1398.82 19.8C1398.42 20.0267 1398.1 20.3533 1397.88 20.78C1397.65 21.1933 1397.54 21.6867 1397.54 22.26V22.74C1397.54 23.3267 1397.66 23.8467 1397.92 24.3C1398.18 24.74 1398.55 25.08 1399.02 25.32C1399.5 25.5467 1400.06 25.66 1400.7 25.66C1401.27 25.66 1401.77 25.5733 1402.2 25.4C1402.64 25.2267 1403.04 24.9667 1403.4 24.62L1405.06 26.42C1404.56 26.98 1403.94 27.4133 1403.2 27.72C1402.45 28.0133 1401.59 28.16 1400.62 28.16ZM1410.62 28L1406.1 17.24H1409.32L1413.08 26.5H1411.48L1415.38 17.24H1418.38L1413.84 28H1410.62ZM1424.7 28.16C1423.47 28.16 1422.39 27.92 1421.46 27.44C1420.54 26.96 1419.83 26.3067 1419.32 25.48C1418.81 24.64 1418.56 23.6867 1418.56 22.62C1418.56 21.54 1418.81 20.5867 1419.3 19.76C1419.81 18.92 1420.49 18.2667 1421.36 17.8C1422.23 17.32 1423.21 17.08 1424.3 17.08C1425.35 17.08 1426.3 17.3067 1427.14 17.76C1427.99 18.2 1428.67 18.84 1429.16 19.68C1429.65 20.5067 1429.9 21.5 1429.9 22.66C1429.9 22.78 1429.89 22.92 1429.88 23.08C1429.87 23.2267 1429.85 23.3667 1429.84 23.5H1421.1V21.68H1428.2L1427 22.22C1427 21.66 1426.89 21.1733 1426.66 20.76C1426.43 20.3467 1426.12 20.0267 1425.72 19.8C1425.32 19.56 1424.85 19.44 1424.32 19.44C1423.79 19.44 1423.31 19.56 1422.9 19.8C1422.5 20.0267 1422.19 20.3533 1421.96 20.78C1421.73 21.1933 1421.62 21.6867 1421.62 22.26V22.74C1421.62 23.3267 1421.75 23.8467 1422 24.3C1422.27 24.74 1422.63 25.08 1423.1 25.32C1423.58 25.5467 1424.14 25.66 1424.78 25.66C1425.35 25.66 1425.85 25.5733 1426.28 25.4C1426.72 25.2267 1427.12 24.9667 1427.48 24.62L1429.14 26.42C1428.65 26.98 1428.03 27.4133 1427.28 27.72C1426.53 28.0133 1425.67 28.16 1424.7 28.16ZM1431.98 28V13.16H1435.1V28H1431.98ZM1441.61 28.16C1440.69 28.16 1439.81 28.0533 1438.95 27.84C1438.11 27.6133 1437.45 27.3333 1436.95 27L1437.99 24.76C1438.49 25.0667 1439.07 25.32 1439.73 25.52C1440.41 25.7067 1441.08 25.8 1441.73 25.8C1442.45 25.8 1442.96 25.7133 1443.25 25.54C1443.56 25.3667 1443.71 25.1267 1443.71 24.82C1443.71 24.5667 1443.59 24.38 1443.35 24.26C1443.13 24.1267 1442.82 24.0267 1442.43 23.96C1442.05 23.8933 1441.62 23.8267 1441.15 23.76C1440.7 23.6933 1440.24 23.6067 1439.77 23.5C1439.31 23.38 1438.88 23.2067 1438.49 22.98C1438.11 22.7533 1437.79 22.4467 1437.55 22.06C1437.33 21.6733 1437.21 21.1733 1437.21 20.56C1437.21 19.88 1437.41 19.28 1437.79 18.76C1438.19 18.24 1438.77 17.8333 1439.51 17.54C1440.26 17.2333 1441.15 17.08 1442.19 17.08C1442.93 17.08 1443.67 17.16 1444.43 17.32C1445.19 17.48 1445.83 17.7133 1446.33 18.02L1445.29 20.24C1444.77 19.9333 1444.25 19.7267 1443.71 19.62C1443.19 19.5 1442.69 19.44 1442.19 19.44C1441.5 19.44 1440.99 19.5333 1440.67 19.72C1440.35 19.9067 1440.19 20.1467 1440.19 20.44C1440.19 20.7067 1440.31 20.9067 1440.53 21.04C1440.77 21.1733 1441.09 21.28 1441.47 21.36C1441.86 21.44 1442.28 21.5133 1442.73 21.58C1443.2 21.6333 1443.67 21.72 1444.13 21.84C1444.6 21.96 1445.02 22.1333 1445.39 22.36C1445.78 22.5733 1446.09 22.8733 1446.33 23.26C1446.57 23.6333 1446.69 24.1267 1446.69 24.74C1446.69 25.4067 1446.49 26 1446.09 26.52C1445.69 27.0267 1445.11 27.4267 1444.35 27.72C1443.61 28.0133 1442.69 28.16 1441.61 28.16Z" fill="#545184"/>
<circle cx="530" cy="235" r="22" transform="rotate(90 530 235)" fill="#F0F0FA"/>
<ellipse cx="530" cy="295.5" rx="22.5" ry="22" transform="rotate(90 530 295.5)" fill="#F0F0FA"/>
<circle cx="530" cy="356" r="22" transform="rotate(90 530 356)" fill="#F0F0FA"/>
<circle cx="530" cy="418" r="22" transform="rotate(90 530 418)" fill="#F0F0FA"/>
<circle cx="530" cy="235" r="22" transform="rotate(90 530 235)" fill="#F0F0FA"/>
<ellipse cx="530" cy="295.5" rx="22.5" ry="22" transform="rotate(90 530 295.5)" fill="#F0F0FA"/>
<circle cx="530" cy="356" r="22" transform="rotate(90 530 356)" fill="#F0F0FA"/>
<circle cx="530" cy="418" r="22" transform="rotate(90 530 418)" fill="#F0F0FA"/>
<circle cx="530" cy="235" r="22" transform="rotate(90 530 235)" fill="#F0F0FA"/>
<ellipse cx="530" cy="295.5" rx="22.5" ry="22" transform="rotate(90 530 295.5)" fill="#F0F0FA"/>
<circle cx="530" cy="356" r="22" transform="rotate(90 530 356)" fill="#F0F0FA"/>
<circle cx="530" cy="418" r="22" transform="rotate(90 530 418)" fill="#F0F0FA"/>
<circle cx="621" cy="235" r="22" transform="rotate(90 621 235)" fill="#F0F0FA"/>
<ellipse cx="621" cy="295.5" rx="22.5" ry="22" transform="rotate(90 621 295.5)" fill="#F0F0FA"/>
<circle cx="621" cy="356" r="22" transform="rotate(90 621 356)" fill="#F0F0FA"/>
<circle cx="621" cy="418" r="22" transform="rotate(90 621 418)" fill="#F0F0FA"/>
<circle cx="438" cy="235" r="22" transform="rotate(90 438 235)" fill="#F0F0FA"/>
<ellipse cx="438" cy="295.5" rx="22.5" ry="22" transform="rotate(90 438 295.5)" fill="#F0F0FA"/>
<circle cx="438" cy="356" r="22" transform="rotate(90 438 356)" fill="#F0F0FA"/>
<circle cx="438" cy="418" r="22" transform="rotate(90 438 418)" fill="#F0F0FA"/>
<circle cx="346" cy="235" r="22" transform="rotate(90 346 235)" fill="#F0F0FA"/>
<ellipse cx="346" cy="295.5" rx="22.5" ry="22" transform="rotate(90 346 295.5)" fill="#F0F0FA"/>
<circle cx="346" cy="356" r="22" transform="rotate(90 346 356)" fill="#F0F0FA"/>
<circle cx="346" cy="418" r="22" transform="rotate(90 346 418)" fill="#F0F0FA"/>
<circle cx="346" cy="235" r="22" transform="rotate(90 346 235)" fill="#F0F0FA"/>
<ellipse cx="346" cy="295.5" rx="22.5" ry="22" transform="rotate(90 346 295.5)" fill="#F0F0FA"/>
<circle cx="346" cy="356" r="22" transform="rotate(90 346 356)" fill="#F0F0FA"/>
<circle cx="346" cy="418" r="22" transform="rotate(90 346 418)" fill="#F0F0FA"/>
<circle cx="346" cy="235" r="22" transform="rotate(90 346 235)" fill="#F0F0FA"/>
<ellipse cx="346" cy="295.5" rx="22.5" ry="22" transform="rotate(90 346 295.5)" fill="#F0F0FA"/>
<circle cx="346" cy="356" r="22" transform="rotate(90 346 356)" fill="#F0F0FA"/>
<circle cx="346" cy="418" r="22" transform="rotate(90 346 418)" fill="#F0F0FA"/>
<ellipse cx="805.5" cy="235" rx="22" ry="22.5" transform="rotate(90 805.5 235)" fill="#F0F0FA"/>
<circle cx="805.5" cy="295.5" r="22.5" transform="rotate(90 805.5 295.5)" fill="#F0F0FA"/>
<ellipse cx="805.5" cy="356" rx="22" ry="22.5" transform="rotate(90 805.5 356)" fill="#F0F0FA"/>
<ellipse cx="805.5" cy="418" rx="22" ry="22.5" transform="rotate(90 805.5 418)" fill="#F0F0FA"/>
<ellipse cx="805.5" cy="235" rx="22" ry="22.5" transform="rotate(90 805.5 235)" fill="#F0F0FA"/>
<circle cx="805.5" cy="295.5" r="22.5" transform="rotate(90 805.5 295.5)" fill="#F0F0FA"/>
<ellipse cx="805.5" cy="356" rx="22" ry="22.5" transform="rotate(90 805.5 356)" fill="#F0F0FA"/>
<ellipse cx="805.5" cy="418" rx="22" ry="22.5" transform="rotate(90 805.5 418)" fill="#F0F0FA"/>
<ellipse cx="805.5" cy="235" rx="22" ry="22.5" transform="rotate(90 805.5 235)" fill="#F0F0FA"/>
<circle cx="805.5" cy="295.5" r="22.5" transform="rotate(90 805.5 295.5)" fill="#F0F0FA"/>
<ellipse cx="805.5" cy="356" rx="22" ry="22.5" transform="rotate(90 805.5 356)" fill="#F0F0FA"/>
<ellipse cx="805.5" cy="418" rx="22" ry="22.5" transform="rotate(90 805.5 418)" fill="#F0F0FA"/>
<circle cx="896" cy="235" r="22" transform="rotate(90 896 235)" fill="#F0F0FA"/>
<ellipse cx="896" cy="295.5" rx="22.5" ry="22" transform="rotate(90 896 295.5)" fill="#F0F0FA"/>
<circle cx="896" cy="356" r="22" transform="rotate(90 896 356)" fill="#F0F0FA"/>
<circle cx="896" cy="418" r="22" transform="rotate(90 896 418)" fill="#F0F0FA"/>
<circle cx="714" cy="235" r="22" transform="rotate(90 714 235)" fill="#F0F0FA"/>
<ellipse cx="714" cy="295.5" rx="22.5" ry="22" transform="rotate(90 714 295.5)" fill="#F0F0FA"/>
<circle cx="714" cy="356" r="22" transform="rotate(90 714 356)" fill="#F0F0FA"/>
<circle cx="714" cy="418" r="22" transform="rotate(90 714 418)" fill="#F0F0FA"/>
<circle cx="988" cy="235" r="22" transform="rotate(90 988 235)" fill="#F0F0FA"/>
<ellipse cx="988" cy="295.5" rx="22.5" ry="22" transform="rotate(90 988 295.5)" fill="#F0F0FA"/>
<circle cx="988" cy="356" r="22" transform="rotate(90 988 356)" fill="#F0F0FA"/>
<circle cx="988" cy="418" r="22" transform="rotate(90 988 418)" fill="#F0F0FA"/>
<circle cx="988" cy="235" r="22" transform="rotate(90 988 235)" fill="#F0F0FA"/>
<ellipse cx="988" cy="295.5" rx="22.5" ry="22" transform="rotate(90 988 295.5)" fill="#F0F0FA"/>
<circle cx="988" cy="356" r="22" transform="rotate(90 988 356)" fill="#F0F0FA"/>
<circle cx="988" cy="418" r="22" transform="rotate(90 988 418)" fill="#F0F0FA"/>
<circle cx="988" cy="235" r="22" transform="rotate(90 988 235)" fill="#F0F0FA"/>
<ellipse cx="988" cy="295.5" rx="22.5" ry="22" transform="rotate(90 988 295.5)" fill="#F0F0FA"/>
<circle cx="988" cy="356" r="22" transform="rotate(90 988 356)" fill="#F0F0FA"/>
<circle cx="988" cy="418" r="22" transform="rotate(90 988 418)" fill="#F0F0FA"/>
<circle cx="1079" cy="235" r="22" transform="rotate(90 1079 235)" fill="#F0F0FA"/>
<ellipse cx="1079" cy="295.5" rx="22.5" ry="22" transform="rotate(90 1079 295.5)" fill="#F0F0FA"/>
<circle cx="1079" cy="356" r="22" transform="rotate(90 1079 356)" fill="#F0F0FA"/>
<circle cx="1079" cy="418" r="22" transform="rotate(90 1079 418)" fill="#F0F0FA"/>
<rect opacity="0.5" x="1324" y="645" width="78" height="237" rx="15" fill="#545184" fill-opacity="0.85"/>
<rect x="-13" y="597" width="1586" height="342" rx="15" fill="#545184" fill-opacity="0.85"/>
<rect width="78" height="103" transform="matrix(1 0 0 -1 401 700)" fill="#F17070"/>
<rect width="78" height="103" transform="matrix(1 0 0 -1 486 700)" fill="#F1A370"/>
<rect width="78" height="103" transform="matrix(1 0 0 -1 570 700)" fill="#EBF170"/>
<rect width="78" height="103" transform="matrix(1 0 0 -1 655 700)" fill="#7FF170"/>
<rect width="78" height="103" transform="matrix(1 0 0 -1 739 700)" fill="#70E8F1"/>
<rect width="78" height="103" transform="matrix(1 0 0 -1 824 700)" fill="#7092F1"/>
<rect width="78" height="103" transform="matrix(1 0 0 -1 908 700)" fill="#B370F1"/>
<rect width="78" height="103" transform="matrix(1 0 0 -1 993 700)" fill="#F170DC"/>
<rect opacity="0.5" x="137" y="645" width="78" height="237" rx="15" fill="#545184" fill-opacity="0.85"/>
<rect opacity="0.5" x="222" y="645" width="78" height="237" rx="15" fill="#545184" fill-opacity="0.85"/>
<rect opacity="0.5" x="306" y="645" width="78" height="237" rx="15" fill="#545184" fill-opacity="0.85"/>
<rect x="391" y="645" width="78" height="237" rx="15" fill="#545184" fill-opacity="0.85"/>
<rect x="475" y="645" width="78" height="237" rx="15" fill="#545184" fill-opacity="0.85"/>
<rect x="560" y="645" width="78" height="237" rx="15" fill="#545184" fill-opacity="0.85"/>
<rect x="644" y="645" width="78" height="237" rx="15" fill="#545184" fill-opacity="0.85"/>
<rect x="729" y="645" width="78" height="237" rx="15" fill="#545184" fill-opacity="0.85"/>
<rect x="813" y="645" width="78" height="237" rx="15" fill="#545184" fill-opacity="0.85"/>
<rect x="898" y="645" width="78" height="237" rx="15" fill="#545184" fill-opacity="0.85"/>
<rect x="983" y="645" width="78" height="237" rx="15" fill="#545184" fill-opacity="0.85"/>
<rect opacity="0.5" x="1067" y="645" width="78" height="237" rx="15" fill="#545184" fill-opacity="0.85"/>
<rect opacity="0.5" x="1152" y="645" width="78" height="237" rx="15" fill="#545184" fill-opacity="0.85"/>
<rect opacity="0.5" x="1236" y="645" width="78" height="237" rx="15" fill="#545184" fill-opacity="0.85"/>
<rect opacity="0.5" x="147" y="637" width="78" height="232" rx="15" fill="white"/>
<rect opacity="0.5" x="232" y="637" width="78" height="232" rx="15" fill="white"/>
<rect opacity="0.5" x="316" y="637" width="78" height="232" rx="15" fill="white"/>
<rect x="401" y="637" width="78" height="232" rx="15" fill="white"/>
<rect x="485" y="637" width="78" height="232" rx="15" fill="white"/>
<rect x="570" y="637" width="78" height="232" rx="15" fill="white"/>
<rect x="654" y="637" width="78" height="232" rx="15" fill="white"/>
<rect x="739" y="637" width="78" height="232" rx="15" fill="white"/>
<rect x="823" y="637" width="78" height="232" rx="15" fill="white"/>
<rect x="908" y="637" width="78" height="232" rx="15" fill="white"/>
<rect x="993" y="637" width="78" height="232" rx="15" fill="white"/>
<rect opacity="0.5" x="1077" y="637" width="78" height="232" rx="15" fill="white"/>
<rect opacity="0.5" x="1162" y="637" width="78" height="232" rx="15" fill="white"/>
<rect opacity="0.5" x="1246" y="637" width="78" height="232" rx="15" fill="white"/>
<rect x="200" y="635" width="45" height="116" rx="15" fill="#545184" fill-opacity="0.6"/>
<rect x="285" y="635" width="45" height="116" rx="15" fill="#545184" fill-opacity="0.6"/>
<rect x="457" y="635" width="45" height="116" rx="15" fill="#545184" fill-opacity="0.6"/>
<rect x="542" y="635" width="45" height="116" rx="15" fill="#545184" fill-opacity="0.6"/>
<rect x="710" y="635" width="45" height="116" rx="15" fill="#545184" fill-opacity="0.6"/>
<rect x="1049" y="635" width="45" height="116" rx="15" fill="#545184" fill-opacity="0.6"/>
<rect x="1134" y="635" width="45" height="116" rx="15" fill="#545184" fill-opacity="0.6"/>
<rect x="1293" y="635" width="45" height="116" rx="15" fill="#545184" fill-opacity="0.6"/>
<rect x="795" y="635" width="45" height="116" rx="15" fill="#545184" fill-opacity="0.6"/>
<rect x="881" y="635" width="45" height="116" rx="15" fill="#545184" fill-opacity="0.6"/>
<rect x="205" y="628" width="45" height="116" rx="15" fill="#545184"/>
<rect x="290" y="628" width="45" height="116" rx="15" fill="#545184"/>
<rect opacity="0.5" x="1405" y="645" width="78" height="237" rx="15" fill="#545184" fill-opacity="0.85"/>
<rect opacity="0.5" x="1489" y="645" width="78" height="237" rx="15" fill="#545184" fill-opacity="0.85"/>
<rect opacity="0.5" x="1330" y="637" width="78" height="232" rx="15" fill="white"/>
<rect opacity="0.5" x="1415" y="637" width="78" height="232" rx="15" fill="white"/>
<rect opacity="0.5" x="1499" y="637" width="78" height="232" rx="15" fill="white"/>
<rect x="1383" y="635" width="45" height="116" rx="15" fill="#545184" fill-opacity="0.6"/>
<rect x="1468" y="635" width="45" height="116" rx="15" fill="#545184" fill-opacity="0.6"/>
<rect x="1388" y="628" width="45" height="116" rx="15" fill="#545184"/>
<rect x="1473" y="628" width="45" height="116" rx="15" fill="#545184"/>
<rect x="1054" y="628" width="45" height="116" rx="15" fill="#545184"/>
<rect x="1139" y="628" width="45" height="116" rx="15" fill="#545184"/>
<rect x="1298" y="628" width="45" height="116" rx="15" fill="#545184"/>
<rect opacity="0.5" x="-32" y="645" width="78" height="237" rx="15" fill="#735184" fill-opacity="0.85"/>
<rect opacity="0.5" x="52" y="645" width="78" height="237" rx="15" fill="#545184" fill-opacity="0.85"/>
<rect opacity="0.5" x="-22" y="637" width="78" height="232" rx="15" fill="white"/>
<rect opacity="0.5" x="62" y="637" width="78" height="232" rx="15" fill="white"/>
<rect x="110" y="635" width="45" height="116" rx="15" fill="#545184" fill-opacity="0.6"/>
<rect x="115" y="628" width="45" height="116" rx="15" fill="#545184"/>
<rect x="404" y="808" width="70" height="57" rx="15" fill="url(#paint0_linear_76_3952)"/>
<rect x="489" y="808" width="70" height="57" rx="15" fill="url(#paint1_linear_76_3952)"/>
<rect x="574" y="808" width="70" height="57" rx="15" fill="url(#paint2_linear_76_3952)"/>
<rect x="658" y="808" width="70" height="57" rx="15" fill="url(#paint3_linear_76_3952)"/>
<rect x="743" y="808" width="70" height="57" rx="15" fill="url(#paint4_linear_76_3952)"/>
<rect x="828" y="808" width="70" height="57" rx="15" fill="url(#paint5_linear_76_3952)"/>
<rect x="911" y="808" width="70" height="57" rx="15" fill="url(#paint6_linear_76_3952)"/>
<rect x="996" y="808" width="70" height="57" rx="15" fill="url(#paint7_linear_76_3952)"/>
<path d="M441.624 624.24C440.544 624.24 439.537 624.067 438.604 623.72C437.684 623.36 436.884 622.853 436.204 622.2C435.524 621.547 434.99 620.78 434.604 619.9C434.23 619.02 434.044 618.053 434.044 617C434.044 615.947 434.23 614.98 434.604 614.1C434.99 613.22 435.524 612.453 436.204 611.8C436.897 611.147 437.704 610.647 438.624 610.3C439.544 609.94 440.55 609.76 441.644 609.76C442.857 609.76 443.95 609.973 444.924 610.4C445.91 610.813 446.737 611.427 447.404 612.24L445.324 614.16C444.844 613.613 444.31 613.207 443.724 612.94C443.137 612.66 442.497 612.52 441.804 612.52C441.15 612.52 440.55 612.627 440.004 612.84C439.457 613.053 438.984 613.36 438.584 613.76C438.184 614.16 437.87 614.633 437.644 615.18C437.43 615.727 437.324 616.333 437.324 617C437.324 617.667 437.43 618.273 437.644 618.82C437.87 619.367 438.184 619.84 438.584 620.24C438.984 620.64 439.457 620.947 440.004 621.16C440.55 621.373 441.15 621.48 441.804 621.48C442.497 621.48 443.137 621.347 443.724 621.08C444.31 620.8 444.844 620.38 445.324 619.82L447.404 621.74C446.737 622.553 445.91 623.173 444.924 623.6C443.95 624.027 442.85 624.24 441.624 624.24Z" fill="white"/>
<path d="M518.898 623V609H525.258C526.778 609 528.118 609.293 529.278 609.88C530.438 610.453 531.345 611.26 531.998 612.3C532.652 613.34 532.978 614.573 532.978 616C532.978 617.413 532.652 618.647 531.998 619.7C531.345 620.74 530.438 621.553 529.278 622.14C528.118 622.713 526.778 623 525.258 623H518.898ZM522.138 620.34H525.098C526.032 620.34 526.838 620.167 527.518 619.82C528.212 619.46 528.745 618.953 529.118 618.3C529.505 617.647 529.698 616.88 529.698 616C529.698 615.107 529.505 614.34 529.118 613.7C528.745 613.047 528.212 612.547 527.518 612.2C526.838 611.84 526.032 611.66 525.098 611.66H522.138V620.34Z" fill="white"/>
<path d="M603.451 623V609H614.031V611.6H606.671V620.4H614.291V623H603.451ZM606.431 617.16V614.64H613.171V617.16H606.431Z" fill="white"/>
<rect x="462" y="628" width="45" height="116" rx="15" fill="#545184"/>
<rect x="547" y="628" width="45" height="116" rx="15" fill="#545184"/>
<path d="M689.773 623V609H700.353V611.6H693.013V623H689.773ZM692.773 617.9V615.3H699.493V617.9H692.773Z" fill="white"/>
<path d="M779.205 624.24C778.098 624.24 777.078 624.067 776.145 623.72C775.225 623.36 774.418 622.853 773.725 622.2C773.045 621.547 772.512 620.78 772.125 619.9C771.752 619.02 771.565 618.053 771.565 617C771.565 615.947 771.752 614.98 772.125 614.1C772.512 613.22 773.052 612.453 773.745 611.8C774.438 611.147 775.252 610.647 776.185 610.3C777.118 609.94 778.145 609.76 779.265 609.76C780.505 609.76 781.618 609.967 782.605 610.38C783.605 610.793 784.445 611.393 785.125 612.18L783.045 614.1C782.538 613.567 781.985 613.173 781.385 612.92C780.785 612.653 780.132 612.52 779.425 612.52C778.745 612.52 778.125 612.627 777.565 612.84C777.005 613.053 776.518 613.36 776.105 613.76C775.705 614.16 775.392 614.633 775.165 615.18C774.952 615.727 774.845 616.333 774.845 617C774.845 617.653 774.952 618.253 775.165 618.8C775.392 619.347 775.705 619.827 776.105 620.24C776.518 620.64 776.998 620.947 777.545 621.16C778.105 621.373 778.718 621.48 779.385 621.48C780.025 621.48 780.645 621.38 781.245 621.18C781.858 620.967 782.452 620.613 783.025 620.12L784.865 622.46C784.105 623.033 783.218 623.473 782.205 623.78C781.205 624.087 780.205 624.24 779.205 624.24ZM784.865 622.46L781.905 622.04V616.78H784.865V622.46Z" fill="white"/>
<path d="M855.664 623L861.904 609H865.104L871.364 623H867.964L862.844 610.64H864.124L858.984 623H855.664ZM858.784 620L859.644 617.54H866.844L867.724 620H858.784Z" fill="white"/>
<path d="M940.514 623V609H947.354C949.114 609 950.434 609.333 951.314 610C952.207 610.667 952.654 611.547 952.654 612.64C952.654 613.373 952.474 614.013 952.114 614.56C951.754 615.093 951.26 615.507 950.634 615.8C950.007 616.093 949.287 616.24 948.474 616.24L948.854 615.42C949.734 615.42 950.514 615.567 951.194 615.86C951.874 616.14 952.4 616.56 952.774 617.12C953.16 617.68 953.354 618.367 953.354 619.18C953.354 620.38 952.88 621.32 951.934 622C950.987 622.667 949.594 623 947.754 623H940.514ZM943.734 620.56H947.514C948.354 620.56 948.987 620.427 949.414 620.16C949.854 619.88 950.074 619.44 950.074 618.84C950.074 618.253 949.854 617.82 949.414 617.54C948.987 617.247 948.354 617.1 947.514 617.1H943.494V614.74H946.954C947.74 614.74 948.34 614.607 948.754 614.34C949.18 614.06 949.394 613.64 949.394 613.08C949.394 612.533 949.18 612.127 948.754 611.86C948.34 611.58 947.74 611.44 946.954 611.44H943.734V620.56Z" fill="white"/>
<path d="M1033.62 623.24C1032.54 623.24 1031.54 623.067 1030.6 622.72C1029.68 622.36 1028.88 621.853 1028.2 621.2C1027.52 620.547 1026.99 619.78 1026.6 618.9C1026.23 618.02 1026.04 617.053 1026.04 616C1026.04 614.947 1026.23 613.98 1026.6 613.1C1026.99 612.22 1027.52 611.453 1028.2 610.8C1028.9 610.147 1029.7 609.647 1030.62 609.3C1031.54 608.94 1032.55 608.76 1033.64 608.76C1034.86 608.76 1035.95 608.973 1036.92 609.4C1037.91 609.813 1038.74 610.427 1039.4 611.24L1037.32 613.16C1036.84 612.613 1036.31 612.207 1035.72 611.94C1035.14 611.66 1034.5 611.52 1033.8 611.52C1033.15 611.52 1032.55 611.627 1032 611.84C1031.46 612.053 1030.98 612.36 1030.58 612.76C1030.18 613.16 1029.87 613.633 1029.64 614.18C1029.43 614.727 1029.32 615.333 1029.32 616C1029.32 616.667 1029.43 617.273 1029.64 617.82C1029.87 618.367 1030.18 618.84 1030.58 619.24C1030.98 619.64 1031.46 619.947 1032 620.16C1032.55 620.373 1033.15 620.48 1033.8 620.48C1034.5 620.48 1035.14 620.347 1035.72 620.08C1036.31 619.8 1036.84 619.38 1037.32 618.82L1039.4 620.74C1038.74 621.553 1037.91 622.173 1036.92 622.6C1035.95 623.027 1034.85 623.24 1033.62 623.24Z" fill="white"/>
<rect x="716" y="628" width="45" height="116" rx="15" fill="#545184"/>
<rect x="800" y="628" width="45" height="116" rx="15" fill="#545184"/>
<rect x="886" y="628" width="45" height="116" rx="15" fill="#545184"/>
<circle cx="1166" cy="235" r="22" transform="rotate(90 1166 235)" fill="#F0F0FA"/>
<ellipse cx="1166" cy="295.5" rx="22.5" ry="22" transform="rotate(90 1166 295.5)" fill="#F0F0FA"/>
<circle cx="1166" cy="356" r="22" transform="rotate(90 1166 356)" fill="#F0F0FA"/>
<circle cx="1166" cy="418" r="22" transform="rotate(90 1166 418)" fill="#F0F0FA"/>
<path d="M68.04 99V61.34H78.47V71.63L76.51 68.62C77.8167 66.0533 79.66 64.1167 82.04 62.81C84.4667 61.4567 87.22 60.78 90.3 60.78C93.7533 60.78 96.7633 61.6667 99.33 63.44C101.943 65.1667 103.67 67.8267 104.51 71.42L100.66 70.37C101.92 67.43 103.927 65.0967 106.68 63.37C109.48 61.6433 112.677 60.78 116.27 60.78C119.257 60.78 121.893 61.3867 124.18 62.6C126.513 63.7667 128.333 65.5867 129.64 68.06C130.993 70.4867 131.67 73.6133 131.67 77.44V99H120.75V79.12C120.75 76.0867 120.12 73.8467 118.86 72.4C117.6 70.9533 115.827 70.23 113.54 70.23C111.953 70.23 110.53 70.6033 109.27 71.35C108.01 72.05 107.03 73.1233 106.33 74.57C105.63 76.0167 105.28 77.86 105.28 80.1V99H94.36V79.12C94.36 76.0867 93.73 73.8467 92.47 72.4C91.2567 70.9533 89.5067 70.23 87.22 70.23C85.6333 70.23 84.21 70.6033 82.95 71.35C81.69 72.05 80.71 73.1233 80.01 74.57C79.31 76.0167 78.96 77.86 78.96 80.1V99H68.04ZM164.558 99V91.65L163.858 90.04V76.88C163.858 74.5467 163.135 72.7267 161.688 71.42C160.288 70.1133 158.118 69.46 155.178 69.46C153.171 69.46 151.188 69.7867 149.228 70.44C147.315 71.0467 145.681 71.8867 144.328 72.96L140.408 65.33C142.461 63.8833 144.935 62.7633 147.828 61.97C150.721 61.1767 153.661 60.78 156.648 60.78C162.388 60.78 166.845 62.1333 170.018 64.84C173.191 67.5467 174.778 71.77 174.778 77.51V99H164.558ZM153.078 99.56C150.138 99.56 147.618 99.07 145.518 98.09C143.418 97.0633 141.808 95.6867 140.688 93.96C139.568 92.2333 139.008 90.2967 139.008 88.15C139.008 85.91 139.545 83.95 140.618 82.27C141.738 80.59 143.488 79.2833 145.868 78.35C148.248 77.37 151.351 76.88 155.178 76.88H165.188V83.25H156.368C153.801 83.25 152.028 83.67 151.048 84.51C150.115 85.35 149.648 86.4 149.648 87.66C149.648 89.06 150.185 90.18 151.258 91.02C152.378 91.8133 153.895 92.21 155.808 92.21C157.628 92.21 159.261 91.79 160.708 90.95C162.155 90.0633 163.205 88.78 163.858 87.1L165.538 92.14C164.745 94.5667 163.298 96.41 161.198 97.67C159.098 98.93 156.391 99.56 153.078 99.56ZM197.331 99.56C194.111 99.56 191.008 99.1867 188.021 98.44C185.081 97.6467 182.748 96.6667 181.021 95.5L184.661 87.66C186.388 88.7333 188.418 89.62 190.751 90.32C193.131 90.9733 195.464 91.3 197.751 91.3C200.271 91.3 202.044 90.9967 203.071 90.39C204.144 89.7833 204.681 88.9433 204.681 87.87C204.681 86.9833 204.261 86.33 203.421 85.91C202.628 85.4433 201.554 85.0933 200.201 84.86C198.848 84.6267 197.354 84.3933 195.721 84.16C194.134 83.9267 192.524 83.6233 190.891 83.25C189.258 82.83 187.764 82.2233 186.411 81.43C185.058 80.6367 183.961 79.5633 183.121 78.21C182.328 76.8567 181.931 75.1067 181.931 72.96C181.931 70.58 182.608 68.48 183.961 66.66C185.361 64.84 187.368 63.4167 189.981 62.39C192.594 61.3167 195.721 60.78 199.361 60.78C201.928 60.78 204.541 61.06 207.201 61.62C209.861 62.18 212.078 62.9967 213.851 64.07L210.211 71.84C208.391 70.7667 206.548 70.0433 204.681 69.67C202.861 69.25 201.088 69.04 199.361 69.04C196.934 69.04 195.161 69.3667 194.041 70.02C192.921 70.6733 192.361 71.5133 192.361 72.54C192.361 73.4733 192.758 74.1733 193.551 74.64C194.391 75.1067 195.488 75.48 196.841 75.76C198.194 76.04 199.664 76.2967 201.251 76.53C202.884 76.7167 204.518 77.02 206.151 77.44C207.784 77.86 209.254 78.4667 210.561 79.26C211.914 80.0067 213.011 81.0567 213.851 82.41C214.691 83.7167 215.111 85.4433 215.111 87.59C215.111 89.9233 214.411 92 213.011 93.82C211.611 95.5933 209.581 96.9933 206.921 98.02C204.308 99.0467 201.111 99.56 197.331 99.56ZM237.249 99.56C232.815 99.56 229.362 98.44 226.889 96.2C224.415 93.9133 223.179 90.53 223.179 86.05V53.01H234.099V85.91C234.099 87.4967 234.519 88.7333 235.359 89.62C236.199 90.46 237.342 90.88 238.789 90.88C240.515 90.88 241.985 90.4133 243.199 89.48L246.139 97.18C245.019 97.9733 243.665 98.58 242.079 99C240.539 99.3733 238.929 99.56 237.249 99.56ZM217.369 69.74V61.34H243.479V69.74H217.369ZM269.796 99.56C265.503 99.56 261.723 98.72 258.456 97.04C255.236 95.36 252.74 93.0733 250.966 90.18C249.193 87.24 248.306 83.9033 248.306 80.17C248.306 76.39 249.17 73.0533 250.896 70.16C252.67 67.22 255.073 64.9333 258.106 63.3C261.14 61.62 264.57 60.78 268.396 60.78C272.083 60.78 275.396 61.5733 278.336 63.16C281.323 64.7 283.68 66.94 285.406 69.88C287.133 72.7733 287.996 76.25 287.996 80.31C287.996 80.73 287.973 81.22 287.926 81.78C287.88 82.2933 287.833 82.7833 287.786 83.25H257.196V76.88H282.046L277.846 78.77C277.846 76.81 277.45 75.1067 276.656 73.66C275.863 72.2133 274.766 71.0933 273.366 70.3C271.966 69.46 270.333 69.04 268.466 69.04C266.6 69.04 264.943 69.46 263.496 70.3C262.096 71.0933 261 72.2367 260.206 73.73C259.413 75.1767 259.016 76.9033 259.016 78.91V80.59C259.016 82.6433 259.46 84.4633 260.346 86.05C261.28 87.59 262.563 88.78 264.196 89.62C265.876 90.4133 267.836 90.81 270.076 90.81C272.083 90.81 273.833 90.5067 275.326 89.9C276.866 89.2933 278.266 88.3833 279.526 87.17L285.336 93.47C283.61 95.43 281.44 96.9467 278.826 98.02C276.213 99.0467 273.203 99.56 269.796 99.56ZM295.267 99V61.34H305.697V71.98L304.227 68.9C305.347 66.24 307.143 64.2333 309.617 62.88C312.09 61.48 315.1 60.78 318.647 60.78V70.86C318.18 70.8133 317.76 70.79 317.387 70.79C317.013 70.7433 316.617 70.72 316.197 70.72C313.21 70.72 310.783 71.5833 308.917 73.31C307.097 74.99 306.187 77.6267 306.187 81.22V99H295.267ZM325.208 99V61.34H335.638V71.63L333.678 68.62C334.985 66.0533 336.828 64.1167 339.208 62.81C341.635 61.4567 344.388 60.78 347.468 60.78C350.921 60.78 353.931 61.6667 356.498 63.44C359.111 65.1667 360.838 67.8267 361.678 71.42L357.828 70.37C359.088 67.43 361.095 65.0967 363.848 63.37C366.648 61.6433 369.845 60.78 373.438 60.78C376.425 60.78 379.061 61.3867 381.348 62.6C383.681 63.7667 385.501 65.5867 386.808 68.06C388.161 70.4867 388.838 73.6133 388.838 77.44V99H377.918V79.12C377.918 76.0867 377.288 73.8467 376.028 72.4C374.768 70.9533 372.995 70.23 370.708 70.23C369.121 70.23 367.698 70.6033 366.438 71.35C365.178 72.05 364.198 73.1233 363.498 74.57C362.798 76.0167 362.448 77.86 362.448 80.1V99H351.528V79.12C351.528 76.0867 350.898 73.8467 349.638 72.4C348.425 70.9533 346.675 70.23 344.388 70.23C342.801 70.23 341.378 70.6033 340.118 71.35C338.858 72.05 337.878 73.1233 337.178 74.57C336.478 76.0167 336.128 77.86 336.128 80.1V99H325.208ZM398.626 99V61.34H409.546V99H398.626ZM404.086 56.09C402.079 56.09 400.446 55.5067 399.186 54.34C397.926 53.1733 397.296 51.7267 397.296 50C397.296 48.2733 397.926 46.8267 399.186 45.66C400.446 44.4933 402.079 43.91 404.086 43.91C406.093 43.91 407.726 44.47 408.986 45.59C410.246 46.6633 410.876 48.0633 410.876 49.79C410.876 51.61 410.246 53.1267 408.986 54.34C407.773 55.5067 406.139 56.09 404.086 56.09ZM419.681 99V61.34H430.111V71.77L428.151 68.62C429.504 66.1 431.441 64.1633 433.961 62.81C436.481 61.4567 439.351 60.78 442.571 60.78C445.557 60.78 448.217 61.3867 450.551 62.6C452.931 63.7667 454.797 65.5867 456.151 68.06C457.504 70.4867 458.181 73.6133 458.181 77.44V99H447.261V79.12C447.261 76.0867 446.584 73.8467 445.231 72.4C443.924 70.9533 442.057 70.23 439.631 70.23C437.904 70.23 436.341 70.6033 434.941 71.35C433.587 72.05 432.514 73.1467 431.721 74.64C430.974 76.1333 430.601 78.0467 430.601 80.38V99H419.681ZM484.523 99.56C480.976 99.56 477.779 98.7667 474.933 97.18C472.086 95.5467 469.823 93.2833 468.143 90.39C466.509 87.4967 465.693 84.09 465.693 80.17C465.693 76.2033 466.509 72.7733 468.143 69.88C469.823 66.9867 472.086 64.7467 474.933 63.16C477.779 61.5733 480.976 60.78 484.523 60.78C487.696 60.78 490.473 61.48 492.853 62.88C495.233 64.28 497.076 66.4033 498.383 69.25C499.689 72.0967 500.343 75.7367 500.343 80.17C500.343 84.5567 499.713 88.1967 498.453 91.09C497.193 93.9367 495.373 96.06 492.993 97.46C490.659 98.86 487.836 99.56 484.523 99.56ZM486.413 90.6C488.186 90.6 489.796 90.18 491.243 89.34C492.689 88.5 493.833 87.31 494.673 85.77C495.559 84.1833 496.003 82.3167 496.003 80.17C496.003 77.9767 495.559 76.11 494.673 74.57C493.833 73.03 492.689 71.84 491.243 71C489.796 70.16 488.186 69.74 486.413 69.74C484.593 69.74 482.959 70.16 481.513 71C480.066 71.84 478.899 73.03 478.013 74.57C477.173 76.11 476.753 77.9767 476.753 80.17C476.753 82.3167 477.173 84.1833 478.013 85.77C478.899 87.31 480.066 88.5 481.513 89.34C482.959 90.18 484.593 90.6 486.413 90.6ZM496.283 99V91.3L496.493 80.1L495.793 68.97V47.06H506.713V99H496.283ZM520.949 99.56C519.083 99.56 517.473 98.93 516.119 97.67C514.813 96.3633 514.159 94.7067 514.159 92.7C514.159 90.6933 514.813 89.0833 516.119 87.87C517.473 86.61 519.083 85.98 520.949 85.98C522.863 85.98 524.473 86.61 525.779 87.87C527.086 89.0833 527.739 90.6933 527.739 92.7C527.739 94.7067 527.086 96.3633 525.779 97.67C524.473 98.93 522.863 99.56 520.949 99.56Z" fill="#6E6B96"/>
<path d="M78.4 135.1C77.48 135.1 76.6533 134.893 75.92 134.48C75.1867 134.053 74.6067 133.44 74.18 132.64C73.7533 131.84 73.54 130.873 73.54 129.74C73.54 128.593 73.7533 127.627 74.18 126.84C74.62 126.04 75.2067 125.433 75.94 125.02C76.6733 124.607 77.4933 124.4 78.4 124.4C79.4 124.4 80.2933 124.627 81.08 125.08C81.88 125.52 82.5067 126.14 82.96 126.94C83.4133 127.74 83.64 128.673 83.64 129.74C83.64 130.793 83.4133 131.727 82.96 132.54C82.5067 133.34 81.88 133.967 81.08 134.42C80.2933 134.873 79.4 135.1 78.4 135.1ZM72.98 135V120.16H74.4V127.6L74.2 129.72L74.34 131.84V135H72.98ZM78.3 133.84C79.0467 133.84 79.7133 133.673 80.3 133.34C80.8867 132.993 81.3533 132.513 81.7 131.9C82.0467 131.273 82.22 130.553 82.22 129.74C82.22 128.913 82.0467 128.193 81.7 127.58C81.3533 126.967 80.8867 126.493 80.3 126.16C79.7133 125.813 79.0467 125.64 78.3 125.64C77.5533 125.64 76.88 125.813 76.28 126.16C75.6933 126.493 75.2267 126.967 74.88 127.58C74.5467 128.193 74.38 128.913 74.38 129.74C74.38 130.553 74.5467 131.273 74.88 131.9C75.2267 132.513 75.6933 132.993 76.28 133.34C76.88 133.673 77.5533 133.84 78.3 133.84ZM86.3217 138.98C85.8284 138.98 85.3551 138.9 84.9017 138.74C84.4617 138.58 84.0817 138.34 83.7617 138.02L84.4217 136.96C84.6884 137.213 84.9751 137.407 85.2817 137.54C85.6017 137.687 85.9551 137.76 86.3417 137.76C86.8084 137.76 87.2084 137.627 87.5417 137.36C87.8884 137.107 88.2151 136.653 88.5217 136L89.2017 134.46L89.3617 134.24L93.6817 124.5H95.0817L89.8217 136.26C89.5284 136.94 89.2017 137.48 88.8417 137.88C88.4951 138.28 88.1151 138.56 87.7017 138.72C87.2884 138.893 86.8284 138.98 86.3217 138.98ZM89.1217 135.3L84.2817 124.5H85.7617L90.0417 134.14L89.1217 135.3ZM102.396 138.98C101.903 138.98 101.429 138.9 100.976 138.74C100.536 138.58 100.156 138.34 99.8359 138.02L100.496 136.96C100.763 137.213 101.049 137.407 101.356 137.54C101.676 137.687 102.029 137.76 102.416 137.76C102.883 137.76 103.283 137.627 103.616 137.36C103.963 137.107 104.289 136.653 104.596 136L105.276 134.46L105.436 134.24L109.756 124.5H111.156L105.896 136.26C105.603 136.94 105.276 137.48 104.916 137.88C104.569 138.28 104.189 138.56 103.776 138.72C103.363 138.893 102.903 138.98 102.396 138.98ZM105.196 135.3L100.356 124.5H101.836L106.116 134.14L105.196 135.3ZM119.345 135V132.68L119.285 132.3V128.42C119.285 127.527 119.032 126.84 118.525 126.36C118.032 125.88 117.292 125.64 116.305 125.64C115.625 125.64 114.978 125.753 114.365 125.98C113.752 126.207 113.232 126.507 112.805 126.88L112.165 125.82C112.698 125.367 113.338 125.02 114.085 124.78C114.832 124.527 115.618 124.4 116.445 124.4C117.805 124.4 118.852 124.74 119.585 125.42C120.332 126.087 120.705 127.107 120.705 128.48V135H119.345ZM115.725 135.1C114.938 135.1 114.252 134.973 113.665 134.72C113.092 134.453 112.652 134.093 112.345 133.64C112.038 133.173 111.885 132.64 111.885 132.04C111.885 131.493 112.012 131 112.265 130.56C112.532 130.107 112.958 129.747 113.545 129.48C114.145 129.2 114.945 129.06 115.945 129.06H119.565V130.12H115.985C114.972 130.12 114.265 130.3 113.865 130.66C113.478 131.02 113.285 131.467 113.285 132C113.285 132.6 113.518 133.08 113.985 133.44C114.452 133.8 115.105 133.98 115.945 133.98C116.745 133.98 117.432 133.8 118.005 133.44C118.592 133.067 119.018 132.533 119.285 131.84L119.605 132.82C119.338 133.513 118.872 134.067 118.205 134.48C117.552 134.893 116.725 135.1 115.725 135.1ZM128.902 135.1C128.009 135.1 127.229 134.933 126.562 134.6C125.895 134.267 125.375 133.767 125.002 133.1C124.642 132.433 124.462 131.6 124.462 130.6V124.5H125.882V130.44C125.882 131.56 126.155 132.407 126.702 132.98C127.262 133.54 128.042 133.82 129.042 133.82C129.775 133.82 130.409 133.673 130.942 133.38C131.489 133.073 131.902 132.633 132.182 132.06C132.475 131.487 132.622 130.8 132.622 130V124.5H134.042V135H132.682V132.12L132.902 132.64C132.569 133.413 132.049 134.02 131.342 134.46C130.649 134.887 129.835 135.1 128.902 135.1ZM143.314 138.98C142.821 138.98 142.347 138.9 141.894 138.74C141.454 138.58 141.074 138.34 140.754 138.02L141.414 136.96C141.681 137.213 141.967 137.407 142.274 137.54C142.594 137.687 142.947 137.76 143.334 137.76C143.801 137.76 144.201 137.627 144.534 137.36C144.881 137.107 145.207 136.653 145.514 136L146.194 134.46L146.354 134.24L150.674 124.5H152.074L146.814 136.26C146.521 136.94 146.194 137.48 145.834 137.88C145.487 138.28 145.107 138.56 144.694 138.72C144.281 138.893 143.821 138.98 143.314 138.98ZM146.114 135.3L141.274 124.5H142.754L147.034 134.14L146.114 135.3ZM160.263 135V132.68L160.203 132.3V128.42C160.203 127.527 159.95 126.84 159.443 126.36C158.95 125.88 158.21 125.64 157.223 125.64C156.543 125.64 155.896 125.753 155.283 125.98C154.67 126.207 154.15 126.507 153.723 126.88L153.083 125.82C153.616 125.367 154.256 125.02 155.003 124.78C155.75 124.527 156.536 124.4 157.363 124.4C158.723 124.4 159.77 124.74 160.503 125.42C161.25 126.087 161.623 127.107 161.623 128.48V135H160.263ZM156.643 135.1C155.856 135.1 155.17 134.973 154.583 134.72C154.01 134.453 153.57 134.093 153.263 133.64C152.956 133.173 152.803 132.64 152.803 132.04C152.803 131.493 152.93 131 153.183 130.56C153.45 130.107 153.876 129.747 154.463 129.48C155.063 129.2 155.863 129.06 156.863 129.06H160.483V130.12H156.903C155.89 130.12 155.183 130.3 154.783 130.66C154.396 131.02 154.203 131.467 154.203 132C154.203 132.6 154.436 133.08 154.903 133.44C155.37 133.8 156.023 133.98 156.863 133.98C157.663 133.98 158.35 133.8 158.923 133.44C159.51 133.067 159.936 132.533 160.203 131.84L160.523 132.82C160.256 133.513 159.79 134.067 159.123 134.48C158.47 134.893 157.643 135.1 156.643 135.1ZM169.82 135.1C168.927 135.1 168.147 134.933 167.48 134.6C166.813 134.267 166.293 133.767 165.92 133.1C165.56 132.433 165.38 131.6 165.38 130.6V124.5H166.8V130.44C166.8 131.56 167.073 132.407 167.62 132.98C168.18 133.54 168.96 133.82 169.96 133.82C170.693 133.82 171.327 133.673 171.86 133.38C172.407 133.073 172.82 132.633 173.1 132.06C173.393 131.487 173.54 130.8 173.54 130V124.5H174.96V135H173.6V132.12L173.82 132.64C173.487 133.413 172.967 134.02 172.26 134.46C171.567 134.887 170.753 135.1 169.82 135.1Z" fill="#6E6B96"/>
<ellipse cx="335.5" cy="462" rx="5.5" ry="6" fill="#F0F0FA"/>
<circle cx="358" cy="462" r="6" fill="#F0F0FA"/>
<ellipse cx="335.5" cy="485" rx="5.5" ry="6" fill="#F0F0FA"/>
<circle cx="358" cy="485" r="6" fill="#F0F0FA"/>
<ellipse cx="426.5" cy="462" rx="5.5" ry="6" fill="#F0F0FA"/>
<ellipse cx="448.5" cy="462" rx="5.5" ry="6" fill="#F0F0FA"/>
<ellipse cx="426.5" cy="485" rx="5.5" ry="6" fill="#F0F0FA"/>
<ellipse cx="448.5" cy="485" rx="5.5" ry="6" fill="#F0F0FA"/>
<circle cx="518" cy="462" r="6" fill="#F0F0FA"/>
<ellipse cx="540.5" cy="462" rx="5.5" ry="6" fill="#F0F0FA"/>
<circle cx="518" cy="485" r="6" fill="#F0F0FA"/>
<ellipse cx="540.5" cy="485" rx="5.5" ry="6" fill="#F0F0FA"/>
<circle cx="609" cy="462" r="6" fill="#F0F0FA"/>
<circle cx="631" cy="462" r="6" fill="#F0F0FA"/>
<circle cx="609" cy="485" r="6" fill="#F0F0FA"/>
<circle cx="631" cy="485" r="6" fill="#F0F0FA"/>
<ellipse cx="704.5" cy="462" rx="5.5" ry="6" fill="#F0F0FA"/>
<ellipse cx="726.5" cy="462" rx="5.5" ry="6" fill="#F0F0FA"/>
<ellipse cx="704.5" cy="485" rx="5.5" ry="6" fill="#F0F0FA"/>
<ellipse cx="726.5" cy="485" rx="5.5" ry="6" fill="#F0F0FA"/>
<circle cx="795" cy="462" r="6" fill="#F0F0FA"/>
<circle cx="817" cy="462" r="6" fill="#F0F0FA"/>
<circle cx="795" cy="485" r="6" fill="#F0F0FA"/>
<circle cx="817" cy="485" r="6" fill="#F0F0FA"/>
<circle cx="887" cy="462" r="6" fill="#F0F0FA"/>
<circle cx="909" cy="462" r="6" fill="#F0F0FA"/>
<circle cx="887" cy="485" r="6" fill="#F0F0FA"/>
<circle cx="909" cy="485" r="6" fill="#F0F0FA"/>
<circle cx="978" cy="462" r="6" fill="#F0F0FA"/>
<circle cx="1000" cy="462" r="6" fill="#F0F0FA"/>
<circle cx="978" cy="485" r="6" fill="#F0F0FA"/>
<circle cx="1000" cy="485" r="6" fill="#F0F0FA"/>
<circle cx="1067" cy="462" r="6" fill="#F0F0FA"/>
<ellipse cx="1089.5" cy="462" rx="5.5" ry="6" fill="#F0F0FA"/>
<circle cx="1067" cy="485" r="6" fill="#F0F0FA"/>
<ellipse cx="1089.5" cy="485" rx="5.5" ry="6" fill="#F0F0FA"/>
<ellipse cx="1154.5" cy="462" rx="5.5" ry="6" fill="#F0F0FA"/>
<ellipse cx="1176.5" cy="462" rx="5.5" ry="6" fill="#F0F0FA"/>
<ellipse cx="1154.5" cy="485" rx="5.5" ry="6" fill="#F0F0FA"/>
<ellipse cx="1176.5" cy="485" rx="5.5" ry="6" fill="#F0F0FA"/>
<path d="M1323 235.523C1323 218.503 1298 219.152 1298 235.523C1299.25 245.348 1310.08 249.62 1318.65 245.348" stroke="#6E6B96" stroke-width="6" stroke-linecap="round"/>
<path d="M1318.37 233.496L1323.47 237.045" stroke="#6E6B96" stroke-width="6" stroke-linecap="round"/>
<path d="M1327 232.677L1324.14 236.227" stroke="#6E6B96" stroke-width="6" stroke-linecap="round"/>
</g>
<defs>
<linearGradient id="paint0_linear_76_3952" x1="439" y1="821" x2="439" y2="865" gradientUnits="userSpaceOnUse">
<stop stop-color="white"/>
<stop offset="1" stop-color="#EFDFEA"/>
</linearGradient>
<linearGradient id="paint1_linear_76_3952" x1="524" y1="821" x2="524" y2="865" gradientUnits="userSpaceOnUse">
<stop stop-color="white"/>
<stop offset="1" stop-color="#EFDFEA"/>
</linearGradient>
<linearGradient id="paint2_linear_76_3952" x1="609" y1="821" x2="609" y2="865" gradientUnits="userSpaceOnUse">
<stop stop-color="white"/>
<stop offset="1" stop-color="#EFDFEA"/>
</linearGradient>
<linearGradient id="paint3_linear_76_3952" x1="693" y1="821" x2="693" y2="865" gradientUnits="userSpaceOnUse">
<stop stop-color="white"/>
<stop offset="1" stop-color="#EFDFEA"/>
</linearGradient>
<linearGradient id="paint4_linear_76_3952" x1="778" y1="821" x2="778" y2="865" gradientUnits="userSpaceOnUse">
<stop stop-color="white"/>
<stop offset="1" stop-color="#EFDFEA"/>
</linearGradient>
<linearGradient id="paint5_linear_76_3952" x1="863" y1="821" x2="863" y2="865" gradientUnits="userSpaceOnUse">
<stop stop-color="white"/>
<stop offset="1" stop-color="#EFDFEA"/>
</linearGradient>
<linearGradient id="paint6_linear_76_3952" x1="946" y1="821" x2="946" y2="865" gradientUnits="userSpaceOnUse">
<stop stop-color="white"/>
<stop offset="1" stop-color="#EFDFEA"/>
</linearGradient>
<linearGradient id="paint7_linear_76_3952" x1="1031" y1="821" x2="1031" y2="865" gradientUnits="userSpaceOnUse">
<stop stop-color="white"/>
<stop offset="1" stop-color="#EFDFEA"/>
</linearGradient>
<clipPath id="clip0_76_3952">
<rect width="1512" height="982" fill="white"/>
</clipPath>
</defs>
</svg>
